<?xml version="1.0" encoding="UTF-8"?>
<svg xmlns="http://www.w3.org/2000/svg" width="1070" height="317" viewBox="0 0 1070 317" fill="none">
  <g clip-path="url(#clip0_53_53)">
    <path d="M1031.2 317H37.455C16.8068 317 0 300.136 0 279.491V37.4535C0 16.801 16.8068 0 37.455 0H1031.2C1051.84 0 1069.24 16.801 1069.24 37.4535V279.491C1069.24 300.136 1051.84 317 1031.2 317Z" fill="#A6A6A6"></path>
    <path d="M1061.57 279.499C1061.57 296.269 1048 309.852 1031.2 309.852H37.4548C20.6717 309.852 7.04883 296.269 7.04883 279.499V37.4461C7.04883 20.6847 20.6717 7.05371 37.4548 7.05371H1031.2C1048 7.05371 1061.56 20.6847 1061.56 37.4461L1061.57 279.499Z" fill="black"></path>
    <path d="M238.623 156.788C238.393 131.246 259.525 118.819 260.491 118.241C248.523 100.782 229.974 98.3965 223.456 98.2063C207.877 96.5658 192.765 107.534 184.829 107.534C176.734 107.534 164.513 98.3648 151.342 98.6343C134.392 98.8958 118.536 108.715 109.839 123.963C91.892 155.052 105.277 200.74 122.472 225.87C131.074 238.178 141.124 251.92 154.28 251.436C167.151 250.905 171.958 243.226 187.49 243.226C202.879 243.226 207.393 251.436 220.81 251.127C234.623 250.905 243.32 238.764 251.62 226.346C261.56 212.239 265.552 198.347 265.711 197.633C265.386 197.522 238.885 187.402 238.623 156.788Z" fill="white"></path>
    <path d="M213.278 81.6749C220.2 73.0128 224.937 61.2284 223.622 49.2695C213.603 49.7133 201.073 56.2039 193.857 64.6757C187.474 72.1411 181.771 84.3773 183.244 95.8844C194.499 96.7244 206.055 90.2022 213.278 81.6749Z" fill="white"></path>
    <path d="M424.883 249.669H406.896L397.043 218.69H362.796L353.41 249.669H335.898L369.829 144.203H390.786L424.883 249.669ZM394.073 205.693L385.163 178.154C384.22 175.34 382.454 168.715 379.848 158.286H379.531C378.494 162.771 376.823 169.397 374.526 178.154L365.774 205.693H394.073Z" fill="white"></path>
    <path d="M512.141 210.71C512.141 223.643 508.648 233.867 501.662 241.372C495.405 248.052 487.635 251.389 478.361 251.389C468.349 251.389 461.158 247.791 456.778 240.595H456.461V280.656H439.575V198.656C439.575 190.525 439.361 182.18 438.949 173.621H453.8L454.742 185.675H455.059C460.69 176.593 469.236 172.06 480.705 172.06C489.671 172.06 497.155 175.602 503.143 182.695C509.147 189.796 512.141 199.131 512.141 210.71ZM494.938 211.328C494.938 203.926 493.274 197.824 489.932 193.021C486.281 188.013 481.378 185.508 475.232 185.508C471.066 185.508 467.28 186.903 463.898 189.653C460.508 192.427 458.291 196.049 457.253 200.534C456.73 202.626 456.469 204.338 456.469 205.685V218.365C456.469 223.897 458.164 228.565 461.554 232.377C464.944 236.189 469.347 238.091 474.765 238.091C481.125 238.091 486.075 235.634 489.615 230.736C493.164 225.831 494.938 219.364 494.938 211.328Z" fill="white"></path>
    <path d="M599.556 210.71C599.556 223.643 596.064 233.867 589.07 241.372C582.821 248.052 575.051 251.389 565.776 251.389C555.765 251.389 548.574 247.791 544.202 240.595H543.885V280.656H526.999V198.656C526.999 190.525 526.785 182.18 526.373 173.621H541.224L542.166 185.675H542.483C548.106 176.593 556.652 172.06 568.129 172.06C577.087 172.06 584.571 175.602 590.575 182.695C596.555 189.796 599.556 199.131 599.556 210.71ZM582.354 211.328C582.354 203.926 580.682 197.824 577.34 193.021C573.689 188.013 568.802 185.508 562.648 185.508C558.474 185.508 554.696 186.903 551.306 189.653C547.916 192.427 545.706 196.049 544.669 200.534C544.154 202.626 543.885 204.338 543.885 205.685V218.365C543.885 223.897 545.58 228.565 548.954 232.377C552.344 236.181 556.747 238.091 562.181 238.091C568.541 238.091 573.491 235.634 577.031 230.736C580.579 225.831 582.354 219.364 582.354 211.328Z" fill="white"></path>
    <path d="M697.292 220.093C697.292 229.064 694.18 236.363 687.93 241.998C681.064 248.156 671.504 251.231 659.219 251.231C647.878 251.231 638.785 249.043 631.902 244.661L635.815 230.578C643.228 235.064 651.363 237.314 660.225 237.314C666.585 237.314 671.535 235.872 675.092 233.003C678.632 230.134 680.398 226.283 680.398 221.48C680.398 217.201 678.941 213.595 676.018 210.671C673.112 207.746 668.256 205.028 661.477 202.516C643.022 195.629 633.803 185.54 633.803 172.274C633.803 163.604 637.035 156.495 643.506 150.964C649.953 145.424 658.554 142.658 669.31 142.658C678.901 142.658 686.869 144.33 693.229 147.667L689.008 161.44C683.067 158.207 676.351 156.59 668.835 156.59C662.894 156.59 658.253 158.056 654.927 160.973C652.115 163.58 650.705 166.758 650.705 170.523C650.705 174.691 652.313 178.138 655.544 180.849C658.356 183.353 663.465 186.063 670.878 188.988C679.947 192.641 686.608 196.913 690.893 201.81C695.162 206.692 697.292 212.802 697.292 220.093Z" fill="white"></path>
    <path d="M753.122 186.302H734.509V223.224C734.509 232.615 737.788 237.307 744.362 237.307C747.38 237.307 749.883 237.045 751.863 236.522L752.33 249.353C749.003 250.597 744.624 251.223 739.198 251.223C732.529 251.223 727.318 249.186 723.556 245.121C719.809 241.047 717.924 234.216 717.924 224.619V186.286H706.836V173.606H717.924V159.681L734.509 154.673V173.606H753.122V186.302Z" fill="white"></path>
    <path d="M837.101 211.02C837.101 222.709 833.759 232.306 827.09 239.811C820.096 247.538 810.814 251.39 799.242 251.39C788.09 251.39 779.212 247.689 772.59 240.287C765.969 232.885 762.658 223.541 762.658 212.28C762.658 200.495 766.064 190.843 772.899 183.338C779.718 175.825 788.922 172.068 800.493 172.068C811.645 172.068 820.619 175.769 827.391 183.179C833.869 190.367 837.101 199.647 837.101 211.02ZM819.581 211.567C819.581 204.553 818.084 198.538 815.051 193.521C811.51 187.451 806.449 184.423 799.891 184.423C793.104 184.423 787.948 187.459 784.407 193.521C781.374 198.546 779.877 204.656 779.877 211.884C779.877 218.897 781.374 224.912 784.407 229.921C788.059 235.991 793.159 239.019 799.741 239.019C806.188 239.019 811.249 235.928 814.9 229.762C818.013 224.651 819.581 218.572 819.581 211.567Z" fill="white"></path>
    <path d="M891.989 188.48C890.318 188.171 888.536 188.013 886.666 188.013C880.726 188.013 876.132 190.255 872.901 194.749C870.089 198.711 868.68 203.72 868.68 209.767V249.669H851.801L851.96 197.57C851.96 188.805 851.746 180.825 851.326 173.629H866.034L866.652 188.179H867.119C868.901 183.178 871.713 179.152 875.562 176.133C879.324 173.415 883.387 172.06 887.767 172.06C889.328 172.06 890.738 172.171 891.989 172.369V188.48Z" fill="white"></path>
    <path d="M967.509 208.047C967.509 211.074 967.311 213.626 966.891 215.711H916.233C916.431 223.223 918.878 228.969 923.583 232.932C927.852 236.474 933.373 238.249 940.152 238.249C947.653 238.249 954.496 237.053 960.65 234.651L963.295 246.38C956.104 249.519 947.613 251.08 937.816 251.08C926.03 251.08 916.78 247.609 910.047 240.674C903.331 233.74 899.965 224.428 899.965 212.747C899.965 201.279 903.093 191.729 909.358 184.114C915.916 175.983 924.779 171.917 935.931 171.917C946.885 171.917 955.177 175.983 960.808 184.114C965.268 190.572 967.509 198.561 967.509 208.047ZM951.407 203.665C951.518 198.656 950.417 194.329 948.128 190.675C945.205 185.976 940.715 183.63 934.672 183.63C929.151 183.63 924.66 185.92 921.231 190.517C918.419 194.17 916.748 198.553 916.233 203.657L951.407 203.665Z" fill="white"></path>
    <path d="M388.489 79.3207C388.489 88.6484 385.694 95.67 380.11 100.385C374.938 104.736 367.588 106.916 358.068 106.916C353.347 106.916 349.308 106.709 345.926 106.297V55.3317C350.337 54.6185 355.09 54.2539 360.222 54.2539C369.291 54.2539 376.126 56.2272 380.735 60.1739C385.899 64.6357 388.489 71.0153 388.489 79.3207ZM379.737 79.5505C379.737 73.5037 378.138 68.8676 374.938 65.6342C371.738 62.4087 367.065 60.792 360.911 60.792C358.297 60.792 356.072 60.9664 354.226 61.3309V100.076C355.248 100.235 357.117 100.306 359.834 100.306C366.186 100.306 371.089 98.5388 374.542 95.0043C377.995 91.4697 379.737 86.3185 379.737 79.5505Z" fill="white"></path>
    <path d="M434.894 87.4679C434.894 93.2135 433.255 97.9209 429.976 101.614C426.538 105.41 421.984 107.304 416.297 107.304C410.816 107.304 406.452 105.489 403.197 101.844C399.95 98.2062 398.326 93.6177 398.326 88.086C398.326 82.3008 399.997 77.5537 403.356 73.8686C406.714 70.1834 411.228 68.3369 416.915 68.3369C422.396 68.3369 426.8 70.1517 430.134 73.7893C433.302 77.3239 434.894 81.8887 434.894 87.4679ZM426.285 87.7373C426.285 84.2899 425.54 81.3339 424.059 78.8692C422.317 75.8894 419.838 74.3995 416.614 74.3995C413.28 74.3995 410.745 75.8894 409.003 78.8692C407.514 81.3339 406.777 84.3375 406.777 87.8879C406.777 91.3353 407.522 94.2913 409.003 96.756C410.801 99.7358 413.303 101.226 416.535 101.226C419.703 101.226 422.19 99.712 423.98 96.6767C425.516 94.1645 426.285 91.1847 426.285 87.7373Z" fill="white"></path>
    <path d="M497.117 69.0977L485.435 106.456H477.831L472.992 90.2336C471.764 86.184 470.766 82.1581 469.99 78.1639H469.84C469.119 82.269 468.121 86.287 466.838 90.2336L461.697 106.456H454.007L443.021 69.0977H451.552L455.773 86.8576C456.795 91.0578 457.634 95.06 458.308 98.8481H458.458C459.076 95.7257 460.098 91.7473 461.539 86.9368L466.838 69.1056H473.602L478.679 86.5564C479.906 90.8122 480.904 94.9094 481.672 98.856H481.902C482.464 95.0124 483.312 90.9152 484.437 86.5564L488.967 69.1056H497.117V69.0977Z" fill="white"></path>
    <path d="M540.146 106.457H531.846V85.059C531.846 78.4654 529.343 75.1686 524.322 75.1686C521.859 75.1686 519.871 76.0721 518.326 77.8869C516.798 79.7017 516.021 81.8415 516.021 84.2903V106.449H507.721V79.773C507.721 76.4921 507.618 72.9338 507.42 69.0822H514.714L515.103 74.9229H515.332C516.299 73.1081 517.74 71.6103 519.633 70.4136C521.882 69.0188 524.401 68.3135 527.157 68.3135C530.642 68.3135 533.541 69.4388 535.846 71.6975C538.713 74.4633 540.146 78.5922 540.146 84.0763V106.457Z" fill="white"></path>
    <path d="M563.037 106.456H554.744V51.9561H563.037V106.456Z" fill="white"></path>
    <path d="M611.904 87.4679C611.904 93.2135 610.264 97.9209 606.985 101.614C603.548 105.41 598.986 107.304 593.307 107.304C587.818 107.304 583.454 105.489 580.207 101.844C576.96 98.2062 575.336 93.6177 575.336 88.086C575.336 82.3008 577.007 77.5537 580.365 73.8686C583.724 70.1834 588.238 68.3369 593.917 68.3369C599.406 68.3369 603.801 70.1517 607.144 73.7893C610.312 77.3239 611.904 81.8887 611.904 87.4679ZM603.287 87.7373C603.287 84.2899 602.542 81.3339 601.061 78.8692C599.326 75.8894 596.839 74.3995 593.624 74.3995C590.281 74.3995 587.747 75.8894 586.012 78.8692C584.523 81.3339 583.787 84.3375 583.787 87.8879C583.787 91.3353 584.531 94.2913 586.012 96.756C587.81 99.7358 590.313 101.226 593.545 101.226C596.713 101.226 599.192 99.712 600.982 96.6767C602.526 94.1645 603.287 91.1847 603.287 87.7373Z" fill="white"></path>
    <path d="M652.077 106.456H644.624L644.006 102.153H643.777C641.226 105.584 637.591 107.304 632.871 107.304C629.346 107.304 626.495 106.171 624.348 103.92C622.4 101.876 621.426 99.3316 621.426 96.3122C621.426 91.7474 623.327 88.2683 627.152 85.8591C630.97 83.4499 636.34 82.2691 643.254 82.3245V81.6271C643.254 76.7057 640.672 74.249 635.5 74.249C631.817 74.249 628.57 75.1762 625.766 77.0148L624.079 71.5624C627.548 69.4147 631.833 68.3369 636.886 68.3369C646.644 68.3369 651.539 73.4882 651.539 83.7907V97.5485C651.539 101.281 651.721 104.253 652.077 106.456ZM643.46 93.6177V87.8562C634.304 87.6977 629.726 90.2099 629.726 95.3849C629.726 97.3345 630.249 98.7927 631.318 99.7675C632.387 100.742 633.75 101.226 635.373 101.226C637.195 101.226 638.898 100.647 640.45 99.498C642.011 98.341 642.969 96.8748 643.325 95.0759C643.412 94.6717 643.46 94.1803 643.46 93.6177Z" fill="white"></path>
    <path d="M699.241 106.456H691.875L691.487 100.457H691.257C688.905 105.022 684.897 107.304 679.266 107.304C674.767 107.304 671.021 105.537 668.051 102.002C665.081 98.4679 663.6 93.8793 663.6 88.2446C663.6 82.1979 665.207 77.3002 668.439 73.5596C671.567 70.0726 675.401 68.3291 679.963 68.3291C684.976 68.3291 688.485 70.0171 690.481 73.4011H690.639V51.9561H698.948V96.3915C698.948 100.029 699.043 103.381 699.241 106.456ZM690.639 90.7014V84.4723C690.639 83.3945 690.56 82.5228 690.41 81.8571C689.942 79.86 688.937 78.1799 687.408 76.8247C685.863 75.4695 684.002 74.788 681.856 74.788C678.759 74.788 676.335 76.0164 674.553 78.481C672.787 80.9457 671.892 84.0919 671.892 87.9356C671.892 91.6286 672.74 94.6243 674.442 96.9304C676.24 99.3872 678.664 100.616 681.697 100.616C684.422 100.616 686.6 99.5932 688.255 97.5407C689.855 95.6466 690.639 93.3642 690.639 90.7014Z" fill="white"></path>
    <path d="M770.232 87.4679C770.232 93.2135 768.593 97.9209 765.314 101.614C761.876 105.41 757.33 107.304 751.635 107.304C746.162 107.304 741.798 105.489 738.535 101.844C735.288 98.2062 733.664 93.6177 733.664 88.086C733.664 82.3008 735.335 77.5537 738.693 73.8686C742.052 70.1834 746.566 68.3369 752.261 68.3369C757.734 68.3369 762.145 70.1517 765.472 73.7893C768.64 77.3239 770.232 81.8887 770.232 87.4679ZM761.631 87.7373C761.631 84.2899 760.886 81.3339 759.405 78.8692C757.655 75.8894 755.184 74.3995 751.952 74.3995C748.626 74.3995 746.091 75.8894 744.341 78.8692C742.852 81.3339 742.115 84.3375 742.115 87.8879C742.115 91.3353 742.86 94.2913 744.341 96.756C746.139 99.7358 748.641 101.226 751.873 101.226C755.041 101.226 757.536 99.712 759.326 96.6767C760.854 94.1645 761.631 91.1847 761.631 87.7373Z" fill="white"></path>
    <path d="M814.861 106.457H806.569V85.059C806.569 78.4654 804.066 75.1686 799.037 75.1686C796.573 75.1686 794.585 76.0721 793.049 77.8869C791.512 79.7017 790.744 81.8415 790.744 84.2903V106.449H782.436V79.773C782.436 76.4921 782.341 72.9338 782.143 69.0822H789.429L789.817 74.9229H790.047C791.021 73.1081 792.463 71.6103 794.348 70.4136C796.605 69.0188 799.116 68.3135 801.88 68.3135C805.357 68.3135 808.256 69.4388 810.561 71.6975C813.436 74.4633 814.861 78.5922 814.861 84.0763V106.457Z" fill="white"></path>
    <path d="M870.723 75.319H861.583V93.4673C861.583 98.0796 863.207 100.386 866.423 100.386C867.912 100.386 869.147 100.259 870.122 99.9975L870.335 106.298C868.696 106.916 866.542 107.225 863.888 107.225C860.609 107.225 858.059 106.227 856.213 104.229C854.36 102.232 853.441 98.8721 853.441 94.1567V75.319H847.984V69.0979H853.441V62.2507L861.576 59.7939V69.09H870.716L870.723 75.319Z" fill="white"></path>
    <path d="M914.666 106.456H906.357V85.2173C906.357 78.5207 903.855 75.1684 898.841 75.1684C894.992 75.1684 892.362 77.11 890.921 80.9933C890.675 81.8095 890.533 82.8081 890.533 83.981V106.448H882.24V51.9561H890.533V74.471H890.691C893.305 70.3738 897.051 68.3291 901.906 68.3291C905.344 68.3291 908.187 69.4545 910.444 71.7131C913.256 74.5265 914.666 78.7109 914.666 84.2425V106.456Z" fill="white"></path>
    <path d="M959.993 86.0097C959.993 87.4996 959.882 88.7517 959.684 89.7741H934.79C934.901 93.4671 936.089 96.2805 938.394 98.2301C940.501 99.9736 943.218 100.845 946.544 100.845C950.227 100.845 953.585 100.259 956.611 99.078L957.91 104.847C954.369 106.385 950.203 107.154 945.38 107.154C939.598 107.154 935.044 105.45 931.749 102.042C928.438 98.6342 926.799 94.0615 926.799 88.3238C926.799 82.6891 928.327 77.9975 931.408 74.2569C934.624 70.2627 938.972 68.2656 944.461 68.2656C949.831 68.2656 953.91 70.2627 956.666 74.2569C958.892 77.4269 959.993 81.3498 959.993 86.0097ZM952.072 83.862C952.136 81.3973 951.589 79.2735 950.465 77.4824C949.023 75.1762 946.829 74.0192 943.859 74.0192C941.15 74.0192 938.941 75.1445 937.254 77.4031C935.875 79.2021 935.06 81.3498 934.79 83.862H952.072Z" fill="white"></path>
  </g>
  <defs>
    <clipPath id="clip0_53_53">
      <rect width="1069.24" height="317" fill="white"></rect>
    </clipPath>
  </defs>
</svg>
