<?xml version="1.0" encoding="UTF-8"?>
<svg xmlns="http://www.w3.org/2000/svg" width="1070" height="317" viewBox="0 0 1070 317" fill="none">
  <g clip-path="url(#clip0_53_52)">
    <path d="M1030.35 317H39.6501C17.8542 317 0.0214844 299.169 0.0214844 277.376V39.6301C0.0214844 17.8366 17.8542 0.00585938 39.6501 0.00585938H1030.35C1052.15 0.00585938 1069.98 17.8366 1069.98 39.6301V277.376C1069.98 299.169 1052.15 317 1030.35 317Z" fill="#100F0D"></path>
    <path d="M1030.35 0.00585938H39.6501C17.8542 0.00585938 0.0214844 17.8366 0.0214844 39.6301V277.376C0.0214844 299.169 17.8542 317 39.6501 317H1030.35C1052.15 317 1069.98 299.169 1069.98 277.376V39.6301C1069.98 17.8366 1052.15 0.00585938 1030.35 0.00585938ZM1030.35 6.34253C1048.71 6.34253 1063.64 21.2763 1063.64 39.6301V277.376C1063.64 295.729 1048.71 310.663 1030.35 310.663H39.6501C21.2943 310.663 6.3654 295.729 6.3654 277.376V39.6301C6.3654 21.2763 21.2943 6.34253 39.6501 6.34253H1030.35Z" fill="#A2A2A1"></path>
    <path d="M847.559 237.752H862.348V138.675H847.559V237.752ZM980.768 174.367L963.815 217.319H963.308L945.713 174.367H929.783L956.176 234.399L941.125 267.794H956.548L997.215 174.37L980.768 174.367ZM896.892 226.498C892.058 226.498 885.297 224.073 885.297 218.084C885.297 210.437 893.714 207.505 900.974 207.505C907.473 207.505 910.541 208.905 914.488 210.818C913.339 219.996 905.436 226.498 896.892 226.498ZM898.683 172.2C887.976 172.2 876.888 176.918 872.298 187.369L885.424 192.848C888.229 187.369 893.452 185.586 898.937 185.586C906.585 185.586 914.361 190.171 914.487 198.331V199.349C911.808 197.82 906.07 195.526 899.064 195.526C884.908 195.526 870.507 203.299 870.507 217.83C870.507 231.086 882.111 239.626 895.109 239.626C905.048 239.626 910.54 235.165 913.972 229.937H914.487V237.589H928.769V199.603C928.769 182.013 915.629 172.2 898.683 172.2ZM807.282 186.428H786.247V152.469H807.282C818.338 152.469 824.615 161.62 824.615 169.448C824.615 177.126 818.338 186.428 807.282 186.428ZM806.901 138.677H771.464V237.754H786.247V200.22H806.902C823.292 200.22 839.405 188.357 839.405 169.452C839.405 150.55 823.292 138.677 806.901 138.677ZM613.665 226.514C603.448 226.514 594.897 217.958 594.897 206.216C594.897 194.338 603.448 185.661 613.665 185.661C623.752 185.661 631.669 194.339 631.669 206.216C631.669 217.958 623.752 226.514 613.665 226.514ZM630.647 179.913H630.135C626.817 175.956 620.429 172.381 612.39 172.381C595.532 172.381 580.083 187.194 580.083 206.216C580.083 225.109 595.532 239.791 612.39 239.791C620.429 239.791 626.817 236.216 630.135 232.133H630.647V236.981C630.647 249.88 623.752 256.771 612.643 256.771C603.581 256.771 597.962 250.261 595.662 244.772L582.768 250.133C586.467 259.067 596.297 270.051 612.644 270.051C630.012 270.051 644.696 259.835 644.696 234.937V174.423H630.647L630.647 179.913ZM654.913 237.749H669.718V138.672H654.913V237.749ZM691.555 205.065C691.174 192.041 701.647 185.404 709.177 185.404C715.053 185.404 720.028 188.342 721.694 192.552L691.555 205.065ZM737.521 193.828C734.713 186.299 726.158 172.381 708.666 172.381C691.297 172.381 676.87 186.042 676.87 206.087C676.87 224.983 691.174 239.792 710.322 239.792C725.772 239.792 734.713 230.347 738.418 224.855L726.926 217.194C723.094 222.813 717.861 226.515 710.322 226.515C702.793 226.515 697.428 223.067 693.985 216.3L739.053 197.661L737.521 193.828ZM378.423 182.723V197.022H412.642C411.62 205.065 408.939 210.937 404.852 215.024C399.871 220.001 392.082 225.493 378.422 225.493C357.353 225.493 340.883 208.513 340.883 187.448C340.883 166.382 357.353 149.4 378.422 149.4C389.787 149.4 398.085 153.869 404.214 159.615L414.304 149.526C405.746 141.356 394.384 135.101 378.422 135.101C349.561 135.101 325.301 158.593 325.301 187.448C325.301 216.299 349.561 239.792 378.422 239.792C393.998 239.792 405.747 234.684 414.939 225.11C424.388 215.661 427.326 202.384 427.326 191.658C427.326 188.342 427.068 185.278 426.558 182.723H378.423ZM466.234 226.514C456.017 226.514 447.206 218.088 447.206 206.087C447.206 193.958 456.017 185.661 466.234 185.661C476.447 185.661 485.258 193.958 485.258 206.087C485.258 218.088 476.447 226.514 466.234 226.514ZM466.234 172.381C447.586 172.381 432.394 186.552 432.394 206.087C432.394 225.493 447.586 239.792 466.234 239.792C484.875 239.792 500.07 225.493 500.07 206.087C500.07 186.552 484.875 172.381 466.234 172.381ZM540.046 226.514C529.836 226.514 521.022 218.088 521.022 206.087C521.022 193.958 529.837 185.661 540.046 185.661C550.264 185.661 559.071 193.958 559.071 206.087C559.071 218.088 550.264 226.514 540.046 226.514ZM540.046 172.381C521.406 172.381 506.213 186.552 506.213 206.087C506.213 225.493 521.406 239.792 540.046 239.792C558.694 239.792 573.886 225.493 573.886 206.087C573.886 186.552 558.694 172.381 540.046 172.381Z" fill="white"></path>
    <path d="M164.198 153.939L79.8223 243.488C79.8254 243.506 79.8318 243.522 79.8347 243.541C82.4225 253.265 91.3051 260.424 101.847 260.424C106.061 260.424 110.018 259.285 113.411 257.285L113.68 257.128L208.661 202.326L164.198 153.939Z" fill="#EB3131"></path>
    <path d="M249.567 138.693L249.486 138.637L208.48 114.868L162.281 155.973L208.64 202.321L249.43 178.788C256.581 174.928 261.436 167.39 261.436 158.697C261.436 150.067 256.647 142.566 249.567 138.693Z" fill="#F6B60B"></path>
    <path d="M79.811 73.5244C79.3037 75.3947 79.0371 77.3537 79.0371 79.388V237.629C79.0371 239.66 79.3006 241.626 79.8142 243.489L167.102 156.229L79.811 73.5244Z" fill="#5778C5"></path>
    <path d="M164.822 158.509L208.498 114.851L113.624 59.8509C110.176 57.7857 106.151 56.5938 101.844 56.5938C91.3025 56.5938 82.4078 63.7667 79.8196 73.502C79.8164 73.5116 79.8164 73.5181 79.8164 73.5264L164.822 158.509Z" fill="#3BAD49"></path>
    <path d="M375.648 77.5193H352.527V83.2402H369.852C369.382 87.9088 367.524 91.574 364.391 94.2362C361.258 96.899 357.257 98.2359 352.527 98.2359C347.338 98.2359 342.941 96.4282 339.338 92.8375C335.808 89.1723 334.013 84.6399 334.013 79.1793C334.013 73.7191 335.808 69.1866 339.338 65.5217C342.941 61.9309 347.338 60.1352 352.527 60.1352C355.19 60.1352 357.728 60.5933 360.056 61.5965C362.385 62.599 364.254 63.9985 365.716 65.7943L370.112 61.3984C368.118 59.1319 365.592 57.3987 362.458 56.1355C359.325 54.8723 356.056 54.266 352.526 54.266C345.604 54.266 339.734 56.668 334.941 61.4604C330.149 66.2645 327.746 72.1836 327.746 79.1794C327.746 86.1753 330.148 92.1072 334.941 96.8996C339.734 101.691 345.604 104.094 352.526 104.094C359.796 104.094 365.591 101.766 370.05 97.0352C373.975 93.0981 375.981 87.7735 375.981 81.1118C375.981 79.9848 375.846 78.7825 375.648 77.5193ZM384.605 55.3299V103.028H412.456V97.171H390.735V82.0399H410.326V76.3189H390.735V61.1997H412.456V55.3297L384.605 55.3299ZM451.509 61.1999V55.3299H418.729V61.1999H432.054V103.028H438.184V61.1999H451.509ZM481.187 55.3299H475.057V103.028H481.187V55.3299ZM521.648 61.1999V55.3299H488.868V61.1999H502.193V103.028H508.323V61.1999H521.648ZM583.506 61.5343C578.775 56.6677 572.98 54.2656 566.057 54.2656C559.122 54.2656 553.327 56.6676 548.596 61.46C543.865 66.1904 541.537 72.1214 541.537 79.179C541.537 86.2367 543.865 92.1686 548.596 96.8992C553.327 101.691 559.122 104.094 566.057 104.094C572.918 104.094 578.775 101.691 583.506 96.8992C588.237 92.1689 590.565 86.2373 590.565 79.179C590.565 72.1832 588.237 66.2638 583.506 61.5343ZM552.992 65.5213C556.522 61.9305 560.856 60.1348 566.057 60.1348C571.246 60.1348 575.581 61.9306 579.048 65.5213C582.577 69.0502 584.311 73.6559 584.311 79.1789C584.311 84.7144 582.577 89.3077 579.048 92.8371C575.58 96.4279 571.246 98.2355 566.057 98.2355C560.856 98.2355 556.522 96.4278 552.992 92.8371C549.537 89.2337 547.803 84.7143 547.803 79.1789C547.803 73.656 549.537 69.1244 552.992 65.5213ZM605.129 73.3225L604.869 64.1215H605.129L629.377 103.028H635.779V55.3294H629.649V83.2397L629.909 92.4407H629.649L606.466 55.3294H598.999V103.028H605.129V73.3225Z" fill="white" stroke="white" stroke-width="0.26666" stroke-miterlimit="10"></path>
  </g>
  <defs>
    <clipPath id="clip0_53_52">
      <rect width="1070" height="317" fill="white"></rect>
    </clipPath>
  </defs>
</svg>
