<?xml version="1.0" encoding="UTF-8"?>
<svg xmlns="http://www.w3.org/2000/svg" width="342" height="169" viewBox="0 0 342 169" fill="none">
  <path d="M186.083 0.0215078C185.605 0.0398881 183.62 0.0950291 181.672 0.15017C164.781 0.628059 147.384 2.32824 130.805 5.11286C124.574 6.16054 116.78 7.69529 111.459 8.92678C91.1581 13.6229 73.2557 19.5414 56.8696 26.9671C53.0833 28.6764 52.0999 29.1543 47.9092 31.2589C39.7759 35.3485 32.9476 39.2819 25.9999 43.8953C21.2578 47.0384 17.7195 49.9517 13.9516 53.784C9.61381 58.2044 6.53511 62.4687 4.11809 67.3762C2.81309 70.0506 2.18816 71.6313 1.40699 74.324C0.497168 77.4578 -0.118573 82.1172 0.0192799 84.8191C0.294985 90.3241 1.48052 94.9375 3.80563 99.5969C5.96532 103.935 8.52937 107.409 12.4352 111.305C16.5064 115.386 20.8901 118.667 26.7718 122.058C29.9241 123.868 34.997 126.322 38.2871 127.627C38.5536 127.728 38.572 127.756 37.5152 126.377C32.6536 119.999 29.3543 112.904 28.2055 106.297C27.7001 103.429 27.5163 99.8267 27.7276 97.1064C28.3985 88.6147 32.093 80.1689 38.6823 72.0172C42.9098 66.788 48.7915 61.2648 55.0776 56.6237C56.8788 55.3003 57.0534 55.1717 58.1563 54.3997C68.3206 47.3049 80.9846 40.6696 95.0088 35.0728C125.777 22.8131 162.529 15.3047 198.996 13.8435C207.083 13.5127 217.927 13.5402 225.417 13.8895C258.814 15.4794 287.414 22.1055 311.345 33.8137C321.684 38.8683 331.812 45.5036 339.504 52.24C339.807 52.5065 340.065 52.7087 340.074 52.6903C340.111 52.6536 339.568 51.1831 339.191 50.3285C337.262 45.862 334.293 41.607 330.24 37.4806C322.64 29.7425 311.125 22.6936 296.687 16.9498C291.908 15.0474 287.515 13.531 281.202 11.5919C280.972 11.5184 280.145 11.2795 279.364 11.0497C262.261 6.12378 242.704 2.72342 222.293 1.11514C220.703 0.995665 219.113 0.867003 218.754 0.839432C216.301 0.646439 210.116 0.333973 204.877 0.14098C202.442 0.0490783 187.94 -0.0428234 186.083 0.0215078Z" fill="white"></path>
  <path d="M303.635 40.5685C303.708 40.6696 304.214 41.3405 304.756 42.0665C310.665 49.8966 314.02 58.3883 314.36 66.3745C314.654 73.1569 313.257 79.4337 310.04 85.8485C309.241 87.4384 309.14 87.6314 308.239 89.1569C304.581 95.3143 298.874 101.766 291.908 107.592C277.691 119.484 257.399 130.016 232.999 138.168C211.944 145.208 188.022 150.299 164.716 152.698C158.752 153.313 155.168 153.608 149.46 153.948C141.814 154.398 136.328 154.545 128.507 154.49C120.107 154.435 113.922 154.177 106.45 153.571C101.846 153.203 98.4183 152.845 93.6302 152.238C77.6026 150.207 61.9333 146.559 48.2767 141.688C45.6392 140.751 44.7937 140.429 41.7058 139.197C27.121 133.371 13.7125 125.449 3.30927 116.516C2.58325 115.891 1.96751 115.395 1.94913 115.413C1.89399 115.478 3.16223 118.538 3.64012 119.494C7.55513 127.278 14.558 134.373 24.7499 140.861C41.5495 151.567 66.942 159.875 96.4792 164.332C109.814 166.336 122.083 167.43 137.513 167.981C141.787 168.137 156.178 168.137 160.489 167.981C178.869 167.328 194.915 165.748 211.218 163C219.03 161.677 224.673 160.546 233.339 158.552C238.026 157.467 246.196 155.28 251.242 153.745C252.326 153.415 253.466 153.075 253.769 152.983C255.745 152.394 262.27 150.226 265.211 149.187C284.087 142.46 301.071 134.124 315.986 124.263C324.055 118.924 330.498 112.693 334.992 105.883C341.985 95.2684 343.796 83.9002 340.193 73.1844C336.287 61.5681 326.151 51.3486 310.987 43.7575C308.983 42.7558 305.188 41.0464 303.727 40.4858C303.524 40.4031 303.515 40.4123 303.635 40.5685Z" fill="white"></path>
  <path d="M188.197 53.4164C185.596 53.6369 183.878 53.9126 182.012 54.3813C177.601 55.4933 173.566 57.4876 170.001 60.3274C168.833 61.2648 166.453 63.6542 165.507 64.8489C161.169 70.3263 158.954 76.9891 159.184 83.9185C159.441 91.528 162.308 98.2276 167.565 103.503C172.574 108.521 178.961 111.507 186.589 112.38C188.114 112.555 192.259 112.527 193.895 112.335C200.42 111.544 206.21 109.054 210.943 105.001C212.064 104.045 213.93 102.124 214.766 101.058C218.093 96.8675 220.142 92.0794 220.868 86.8042C221.07 85.3706 221.144 82.007 221.015 80.4722C220.409 73.2855 217.44 66.9627 212.34 62.0275C207.506 57.3497 201.201 54.4181 194.171 53.591C193.004 53.4531 189.098 53.3336 188.197 53.4164ZM192.939 70.4825C197.516 71.6405 200.815 75.3625 201.762 80.4263C202.019 81.8048 202.001 84.5802 201.716 85.8944C200.889 89.791 198.738 92.8054 195.614 94.4504C193.923 95.3327 192.259 95.7279 190.164 95.7279C187.71 95.7279 185.725 95.1397 183.758 93.8255C177.27 89.5153 176.388 79.0018 182.04 73.3958C183.262 72.1735 184.723 71.2728 186.35 70.7306C187.664 70.2895 188.491 70.1792 190.357 70.216C191.763 70.2435 192.149 70.2895 192.939 70.4825Z" fill="white"></path>
  <path d="M64.957 82.9536V111.351H87.7486H110.54V103.264V95.1765H97.2145H83.8888V74.8662V54.556H74.4229H64.957V82.9536Z" fill="white"></path>
  <path d="M136.061 72.9087L136.043 91.2706L135.832 92.0518C135.28 94.1104 134.168 95.4705 132.523 96.1047C131.724 96.4079 130.207 96.4539 129.196 96.1966C127.285 95.7187 125.63 94.4321 123.875 92.0794C123.645 91.7577 123.434 91.5004 123.406 91.5004C123.37 91.5004 111.413 101.545 111.119 101.83C110.926 102.014 112.562 104.109 114.161 105.708C116.459 108.015 118.701 109.495 121.651 110.653C125.557 112.187 131.163 112.812 135.804 112.224C141.575 111.498 146.501 108.962 149.801 105.019C152.65 101.61 154.083 97.6854 154.469 92.2356C154.524 91.3993 154.561 84.1666 154.561 72.7249V54.5559H145.325H136.089L136.061 72.9087Z" fill="white"></path>
  <path d="M226.428 82.9536V111.351H235.894H245.36V103.218V95.0846H247.372H249.385L254.743 103.218L260.101 111.351H270.936H281.771L281.367 110.772C280.025 108.888 268.611 92.1529 268.611 92.0886C268.611 92.0427 268.969 91.8221 269.41 91.5923C270.541 91.0042 272.195 89.9014 273.16 89.0926C276.753 86.0874 278.794 82.4389 279.52 77.7152C279.713 76.4286 279.74 72.8996 279.566 71.5578C278.977 67.1281 277.342 63.8013 274.346 60.8972C270.458 57.1292 264.88 55.1074 257.178 54.6571C256.158 54.5927 250.056 54.556 240.985 54.556H226.428V82.9536ZM255.561 70.5928C256.71 70.7674 257.298 70.942 258.171 71.4016C259.458 72.0724 260.312 73.1201 260.661 74.4711C260.845 75.1695 260.836 76.7502 260.652 77.4671C260.367 78.5699 259.733 79.4981 258.833 80.1414C258.079 80.6836 257.445 80.9777 256.324 81.2718L255.423 81.5199L250.396 81.5567L245.36 81.5843V76.0242V70.455H250.028C253.64 70.455 254.881 70.4825 255.561 70.5928Z" fill="white"></path>
</svg>
